<?xml version="1.0" encoding="utf-8"?>
<!-- Generator: Adobe Illustrator 25.2.3, SVG Export Plug-In . SVG Version: 6.00 Build 0)  -->
<svg version="1.1" id="Layer_1" xmlns="http://www.w3.org/2000/svg" xmlns:xlink="http://www.w3.org/1999/xlink" x="0px" y="0px"
	 viewBox="0 0 460 125.5" style="enable-background:new 0 0 460 125.5;" xml:space="preserve">
<style type="text/css">
	.st0{fill:#00AAA0;}
	.st1{fill:#141414;}
	.st2{fill:#676766;}
</style>
<g>
	<g>
		<path class="st0" d="M0,55.5c0-17.1,10.4-28.2,26-28.2c12.2,0,19.2,6.7,19.2,18.5c0,16.7-10.2,27.6-25.9,27.6
			C7.2,73.5,0,66.9,0,55.5z M31.1,46.2c0-6-2.4-9.2-6.6-9.2c-6,0-10.5,7.9-10.5,18c0,5.7,2.4,8.8,6.6,8.8
			C27,63.8,31.1,56.1,31.1,46.2z"/>
		<path class="st0" d="M86.3,72.3h-8.2l-1.3-2.7c-3.6,2.5-8,3.9-12.5,3.9c-11.3,0-18.5-7.4-18.5-19c0-16.2,10.2-27.2,25.6-27.2
			c2.9,0,5.4,0.4,7.6,1.2l3-21.8L95.7,6L86.3,72.3z M77.6,37.9c-1.5-0.5-3.1-0.9-5.2-0.9c-7.1,0-12.3,6.8-12.3,16.8
			c0,6.2,3.3,10,8.4,10c2.3,0,3.9-0.4,5.7-1.3L77.6,37.9z"/>
		<path class="st0" d="M90.2,55.5c0-17.1,10.4-28.2,26-28.2c12.2,0,19.2,6.7,19.2,18.5c0,16.7-10.2,27.6-25.9,27.6
			C97.4,73.5,90.2,66.9,90.2,55.5z M121.4,46.2c0-6-2.4-9.2-6.6-9.2c-6.1,0-10.6,7.9-10.6,18c0,5.7,2.4,8.8,6.6,8.8
			C117.2,63.8,121.4,56.1,121.4,46.2z"/>
		<path class="st0" d="M149.4,32.5c4.4-3.2,9.5-5.2,14.8-5.2c8.2,0,13,4.8,13,11.9c0,1.5-0.2,3.3-0.4,5.4l-3.9,27.6h-13.6l3.6-24.7
			c0.3-2.1,0.4-3.6,0.4-5c0-3.1-1.9-5-5.6-5c-1.9,0-4.1,0.4-6.1,1.3l-4.7,33.3h-13.6l6.2-43.7h8.3L149.4,32.5z"/>
		<path class="st0" d="M193.1,54.4c-0.3,2.1-0.4,3.6-0.4,4.7c0,3.1,1.7,4.7,5.1,4.7c1.7,0,2.9-0.3,4.9-0.7l-1,8.1
			c-3.4,1.6-6.9,2.3-10.6,2.3c-8,0-12.5-4-12.5-10.9c0-1.8,0.2-3.8,0.6-6.6l2.6-18.7l-5.4-0.8l1-7.9h5.8l5.1-12.8h10.3l-1.8,12.8
			h10.1l-1.1,8.7h-10.1L193.1,54.4z"/>
		<path class="st1" d="M292.9,61.6c4.3,1.6,9.2,2.6,13.1,2.6c4,0,6.6-1.4,6.6-4.3c0-5.9-18.9-3.1-18.9-16.8
			c0-9.2,7.8-15.7,19.5-15.7c4.9,0,10.2,1,14.9,2.4l-3.1,9.1c-4.1-1.6-9.2-2.6-11.9-2.6c-3.3,0-5.7,1.7-5.7,4.3
			c0,5.6,19.3,3.4,19.3,17.6c0,9.4-8.1,15.4-20,15.4c-5.9,0-11.5-1.1-16.1-3.1L292.9,61.6z"/>
		<path class="st1" d="M345.9,30.4c3.6-1.9,7.5-3.1,11.5-3.1c8.2,0,13,4.7,13,11.9c0,1.6-0.2,3.4-0.4,5.4l-4,27.7h-13.6l3.6-24.7
			c0.3-2.2,0.4-3.5,0.4-5c0-3.1-1.9-5.1-5.6-5.1c-1.9,0-4.1,0.5-6.1,1.4L340,72.2h-14l9.3-65.6h13.9L345.9,30.4z"/>
		<path class="st1" d="M369.7,55.5c0-17.1,10.4-28.2,26-28.2c12.2,0,19.2,6.7,19.2,18.5c0,16.7-10.2,27.6-25.9,27.6
			C376.8,73.5,369.7,66.9,369.7,55.5z M400.8,46.2c0-6-2.4-9.2-6.6-9.2c-6.1,0-10.6,7.9-10.6,18c0,5.7,2.4,8.8,6.6,8.8
			C396.7,63.8,400.8,56.1,400.8,46.2z"/>
		<path class="st1" d="M428.9,31.3c3.8-2.5,8.3-3.9,12.6-3.9c11,0,18.5,7.4,18.5,18.6c0,16.6-10.2,27.6-25.7,27.6
			c-2.9,0-5.5-0.4-7.7-1.2l-3.1,21.9h-13.9l9.4-65.6h8.6L428.9,31.3z M427.9,63c1.5,0.5,3.1,0.9,5.3,0.9c7.4,0,12.4-6.7,12.4-17
			c0-5.9-3.3-9.8-8.4-9.8c-2.3,0-4.1,0.4-5.9,1.4L427.9,63z"/>
		<path class="st0" d="M283.6,0.6c-3.3-1-6.1-0.5-6.1-0.5c-10.9,0-21.1,7.5-23.1,9.1c-0.2,0.2-0.4,0.3-0.4,0.3
			c-0.5,0.3-0.9,0.6-1.4,0.8c-1.3,0.8-2.5,1.6-3.8,2.4c-0.1,0.1-0.2,0.1-0.3,0.2c-2.8,1.6-5.7,3-8.7,4.1s-6.2,1.8-9.4,1.9
			s-6.4-0.4-9.1-2c2.9,1.1,6,0.8,8.8,0.1c2.9-0.7,5.5-1.9,8-3.4s4.8-3.3,7-5.3c0.2-0.2,0.4-0.4,0.6-0.6c-4-2.7-12.2-7.6-21-7.6
			c0,0-2.8-0.5-6.2,0.5c-5.4,1.7-12.1,7.3-10.7,25.4c0,0,0.9,17.5,6.4,34.9c3.7,11.6,9.4,23.1,18.2,29.5c0,0,0.8,0.5,2,0.8
			c2.6,0.6,6.9,0.2,9.2-8.3c0,0,1.9-8.7,4.4-13.5c0.7-1,1.7-1.9,3-1.9c0,0,0.9-0.3,1.9,0.8c0.9,1.4,1.7,3.5,2.5,5.5
			c0.2,0.5,0.3,1,0.5,1.5c1.2,3.9,2.1,7.5,2.1,7.5c2.3,8.3,6.5,8.9,9.1,8.3c1.3-0.3,2.2-0.8,2.2-0.8c8.9-6.4,14.6-17.9,18.3-29.5
			c5.5-17.4,6.4-34.9,6.4-34.9C295.7,7.9,288.9,2.3,283.6,0.6z"/>
	</g>
	<g>
		<path class="st2" d="M73.9,109.7c4.8,0,7.2,2.5,7.2,7.7s-2.4,7.8-7.2,7.8h-5.6v-15.5H73.9z M73.6,123.1c3.2,0,4.7-1.9,4.7-5.7
			c0-3.8-1.5-5.6-4.6-5.6h-2.6v11.3C71.1,123.1,73.6,123.1,73.6,123.1z"/>
		<path class="st2" d="M99.9,125.2h-2.8v-15.5h2.8V125.2z"/>
		<path class="st2" d="M116.9,122.5c1.2,0.4,3.1,0.7,4.4,0.7c1.9,0,2.9-0.9,2.9-2.3c0-1-0.7-1.5-2.5-2c-2.5-0.7-5.4-1.7-5.4-4.7
			c0-2.9,2.2-4.8,5.8-4.8c1.6,0,3.2,0.2,4.7,0.7l-0.6,2.1c-1.4-0.4-2.9-0.6-4-0.6c-1.9,0-3.1,0.9-3.1,2.3c0,1.2,1.2,1.7,2.7,2.1
			c3.9,1.2,5.2,2.3,5.2,4.8c0,2.8-2.3,4.6-5.9,4.6c-1.8,0-3.8-0.4-5.1-1L116.9,122.5z"/>
		<path class="st2" d="M149.6,111.9v13.3h-2.8v-13.3h-5v-2.2h13v2.2H149.6z"/>
		<path class="st2" d="M181.7,125.2h-3.1l-2.3-5.7h-0.1H173v5.7h-2.8v-15.5h6.1c3.2,0,5.1,1.9,5.1,4.8c0,2.1-0.9,3.7-2.6,4.5l2.9,6
			V125.2z M175.8,117.4c1.6,0,2.7-1.1,2.7-2.8c0-1.8-1-2.8-2.6-2.8H173v5.6C173,117.4,175.8,117.4,175.8,117.4z"/>
		<path class="st2" d="M200.4,125.2h-2.8v-15.5h2.8V125.2z"/>
		<path class="st2" d="M223.3,109.7c2.7,0,4.3,1.4,4.3,3.8c0,1.6-0.8,2.8-2,3.3c1.9,0.5,3,1.9,3,3.8c0,2.9-1.9,4.5-5.2,4.5h-6v-15.5
			L223.3,109.7L223.3,109.7z M220.2,115.9h2.7c1.3,0,2.1-0.8,2.1-2.1c0-1.3-0.7-2-2-2h-2.7v4.1H220.2z M222.9,123.1
			c1.8,0,2.8-1,2.8-2.7c0-1.5-1-2.5-2.8-2.5h-2.8v5.2H222.9z"/>
		<path class="st2" d="M257,119.7c0,3.9-2,5.8-6.2,5.8c-4,0-6.3-1.9-6.3-5.8v-10h2.8v9.9c0,2.5,1.4,3.6,3.5,3.6
			c2.3,0,3.5-1.1,3.5-3.6v-9.9h2.8v10H257z"/>
		<path class="st2" d="M276.5,125.2h-2.8v-15.5h2.8V125.2z"/>
		<path class="st2" d="M299,109.7c4.8,0,7.2,2.5,7.2,7.7s-2.4,7.8-7.2,7.8h-5.6v-15.5H299z M298.6,123.1c3.2,0,4.7-1.9,4.7-5.7
			c0-3.8-1.5-5.6-4.6-5.6h-2.6v11.3C296.1,123.1,298.6,123.1,298.6,123.1z"/>
		<path class="st2" d="M321.3,117.5c0-5,2.9-8.1,7.5-8.1c4.7,0,7.4,2.9,7.4,8c0,5-2.9,8.1-7.5,8.1
			C323.9,125.5,321.3,122.5,321.3,117.5z M333.3,117.4c0-3.7-1.8-5.7-4.6-5.7c-2.8,0-4.5,2-4.5,5.8c0,3.7,1.8,5.7,4.5,5.7
			C331.5,123.2,333.3,121.1,333.3,117.4z"/>
		<path class="st2" d="M363.6,125.2h-3.1l-2.3-5.7h-0.1h-3.2v5.7h-2.8v-15.5h6.1c3.2,0,5.1,1.9,5.1,4.8c0,2.1-0.9,3.7-2.6,4.5l2.9,6
			V125.2z M357.8,117.4c1.6,0,2.7-1.1,2.7-2.8c0-1.8-1-2.8-2.6-2.8H355v5.6C355,117.4,357.8,117.4,357.8,117.4z"/>
		<path class="st2" d="M391.7,125.2h-3l-1-3.6h-5.5l-1,3.6h-2.8V125l5-15.3h3.6l4.8,15.3v0.2H391.7z M385,111.7l-2.2,7.6h4.3
			L385,111.7z"/>
	</g>
</g>
</svg>
